inDegrees=yes
name=ik_Xsens_quaternion
DataType=double
version=3
OpenSimVersion=4.4-2022-07-23-0e9fedc
endheader
time	pelvis_tilt	pelvis_list	pelvis_rotation	pelvis_tx	pelvis_ty	pelvis_tz	hip_flexion_r	hip_adduction_r	hip_rotation_r	knee_angle_r	knee_angle_r_beta	ankle_angle_r	subtalar_angle_r	mtp_angle_r	hip_flexion_l	hip_adduction_l	hip_rotation_l	knee_angle_l	knee_angle_l_beta	ankle_angle_l	subtalar_angle_l	mtp_angle_l	lumbar_extension	lumbar_bending	lumbar_rotation	arm_flex_r	arm_add_r	arm_rot_r	elbow_flex_r	pro_sup_r	wrist_flex_r	wrist_dev_r	arm_flex_l	arm_add_l	arm_rot_l	elbow_flex_l	pro_sup_l	wrist_flex_l	wrist_dev_l
25.76666666666667	-1982.941806788624	-1072.962652726684	574.8314571383181	0	0.93	0	62.7790611302016	10.29384025780198	6.055703654003791	0.001029215590305664	1.796320076369086e-05	-4.999999851046335	0	0	45.00000011886161	-9.999999988573343	-2.721325531858897e-15	60.00014061962231	1.047200005472	-4.999999851065639	0	0	0	0	0	0	0	0	0	1.613358649840676e-38	0	0	0	0	0	0	1.613358649840676e-38	0	0
25.78333333333333	-1987.677423643077	-1068.631433193717	576.0062016119571	0	0.93	0	62.65390838193037	8.906436424017452	8.107817968795102	0.0009429065713929475	1.645682420949791e-05	-4.999999851046367	0	0	45.00000011886161	-9.999999988573341	-2.721325531858897e-15	60.00014061962231	1.047200005472	-4.999999851064986	0	0	0	0	0	0	0	0	0	1.074755811490211e-39	0	0	0	0	0	0	1.074755811490211e-39	0	0
25.8	-1991.989588235478	-1061.583325765562	578.4273975368155	0	0.93	0	61.6909305873133	7.634271562822485	10.42464035004864	0.000853161856596073	1.489048345002918e-05	-4.999999851046407	0	0	45.00000011886161	-9.999999988573339	-2.721325531858897e-15	60.00014061962231	1.047200005472	-4.999999851064178	0	0	0	0	0	0	-2.694034605743505e-36	0	1.306775741775452e-39	1.306775741775452e-39	0	-8.037862580867859e-37	0	-2.694034605743505e-36	0	1.306775741775452e-39	1.306775741775452e-39	0	-8.037862580867859e-37
25.81666666666667	-1997.43015344048	-1050.182999089441	583.5550143051855	0	0.93	0	60.41138342004869	6.224579968880382	13.78291966243797	0.0007859032841442462	1.371659991055364e-05	-4.999999851046455	0	0	45.00000011886161	-9.999999988573339	-2.721325531858897e-15	60.00014061962231	1.047200005472	-4.999999851063097	0	0	0	0	0	0	2.014684926368413e-56	0	0	0	0	0	0	2.014684926368413e-56	0	0	0	0	0
25.83333333333333	-2005.182897633279	-1036.164989625375	592.3278840722523	0	0.93	0	60.23417714800094	4.308528468486886	18.71174320492443	0.0007829726963777211	1.366545150500911e-05	-4.999999851046522	0	0	45.00000011886161	-9.999999988573334	-2.721325531858897e-15	60.00014061962231	1.047200005472	-4.999999851061605	0	0	0	0	0	0	-1.347017302871753e-36	0	0	3.391831956361e-39	0	0	0	-1.347017302871753e-36	0	0	3.391831956361e-39	0	0
25.85	-2013.900539169072	-1023.182392498042	605.2983910880553	0	0.93	0	62.31602212693847	1.137735343071632	24.94536342454868	0.0009029995451386606	1.576031520668078e-05	-4.999999851046598	0	0	45.00000011886161	-9.999999988573334	-2.721325531858897e-15	60.00014061962231	1.047200005472	-4.999999851059997	0	0	0	0	0	0	1.345678433610657e-55	0	0	0	0	-1.077613842297402e-35	0	1.345678433610657e-55	0	0	0	0	-1.077613842297402e-35
25.86666666666667	-2021.017051963109	-1015.53075151249	622.6446511948627	0	0.93	0	64.30102850353556	-4.238591387148655	31.16922722624235	0.001238454815091811	2.161511416052966e-05	-4.999999851046669	-4.234889474810318e-19	-1.073474305650732e-21	45.00000011886161	-9.999999988573334	-2.721325531858897e-15	60.00014061962231	1.047200005472	-4.999999851058417	-2.041351407438325e-21	-2.072846376075582e-21	0	1.791095938879373e-18	5.247433851121199e-30	-2.264137889617357e-19	-4.682213486935736e-25	1.759631374338318e-17	0	0	-9.061556804028813e-19	2.934523518255514e-18	2.02959658431166e-17	-1.381681835948408e-16	-1.486772282092448e-17	0	0	-1.542660070854032e-17	5.527210706549445e-19
25.88333333333333	-2046.23998849746	-1016.186795014862	689.1091451567321	0	0.93	0	57.33184456375051	-30.0688863674996	17.07728391941325	0.00289600236207307	5.054477636370803e-05	-4.999999851047194	-3.490369541265634e-23	5.05186073366389e-23	45.00000011886164	-9.999999988573334	-2.721325531858897e-15	60.00014061962231	1.047200005472	-4.999999851047811	9.909505565627603e-23	1.737803115468243e-22	0	6.737536304080158e-22	-7.475600373712957e-33	-8.388555425921654e-24	1.495206448009122e-29	-7.392779712207422e-22	9.662184202884016e-18	9.661916521525405e-18	-1.367128402339405e-21	-2.47672404247052e-22	-4.745934067190063e-22	-6.347428678806812e-22	3.874858726316182e-22	9.661829088729956e-18	9.66205647822474e-18	7.972007492531585e-22	-4.727416138008219e-23
25.9	-1890.277540318275	-1094.805795341012	897.7539683479407	0	0.93	0	38.19384796314301	7.552185257444494	-6.329607188423053	0.01491458666005314	0.0002603086437919514	-4.999999851047195	0	0	45.00000011886164	-9.999999988573334	1.164342915870262e-13	60.00014061962231	1.047200005472	-4.999999851047169	0	0	0	0	0	0	0	0	0	0	0	0	0	0	0	0	0	0	0
25.91666666666667	-1890.465138660485	-1090.902164849989	903.7095869117795	0	0.93	0	37.24774115050396	7.325071187713693	-3.360838054534094	0.003855832087188712	6.729696532548808e-05	-4.999999851047198	2.392783398746716e-51	0	45.00000011886164	-9.999999988573334	1.098966003122722e-13	60.00014061962231	1.047200005472	-4.999999851047169	-6.609011208172392e-36	4.594144125593695e-49	0	0	0	7.477448121083488e-52	-7.759387965143422e-37	0	1.052357267868557e-38	0	0	1.010262977153814e-36	0	1.580921088306395e-36	-1.046842736951688e-50	1.052357267868557e-38	0	0	-2.135478283935673e-37
25.93333333333333	-1889.499432614074	-1089.377684087182	912.397218407378	0	0.93	0	35.68551441474828	8.200933115451658	-0.909871762073322	0.002146682892893206	3.746668447722323e-05	-4.999999851047198	-1.027692644402887e-41	9.208126093849871e-39	45.00000011886164	-9.999999988573334	1.059013769150735e-13	60.00014061962231	1.047200005472	-4.999999851046962	-1.513021700210176e-55	-2.877539404328085e-40	0	0	0	-8.751248210492021e-71	2.298960806363209e-37	-4.521847635372704e-40	0	0	0	-1.932316823996675e-57	3.505911794821786e-36	4.111454655942566e-54	0	0	0	1.273742156680551e-37	0
25.95	-1888.69837729634	-1091.746020291527	921.6947399513224	0	0.93	0	34.55703171616346	9.904793625404801	0.5306653270956976	0.001580924894683642	2.759234463897415e-05	-4.999999851047199	1.546300029282831e-77	0	45.00000011886164	-9.999999988573334	1.040613760702533e-13	60.00014061962231	1.047200005472	-4.999999851046969	0	0	0	0	0	0	2.376542349619353e-58	0	0	2.559137002499006e-38	0	0	0	2.985712462440495e-73	0	0	2.559137002499006e-38	0	0
25.96666666666667	-1887.898852448741	-1099.784174922131	928.8856820354057	0	0.93	0	34.34374492506065	12.23056464684226	0.6152272516691262	0.001466667356105089	2.559817439555396e-05	-4.9999998510472	0	0	45.00000011886164	-9.999999988573334	1.018652741006202e-13	60.00014061962231	1.047200005472	-4.99999985104698	0	0	0	0	0	0	-8.063460148994849e-76	0	1.141567672792086e-39	3.005863596692094e-39	0	0	0	-1.742349040194343e-92	0	1.141567672792086e-39	3.005863596692094e-39	0	0
25.98333333333333	-1887.04130923662	-1111.929153348225	929.8846975067929	0	0.93	0	35.84137650076995	14.20415109865095	-0.7212397009927728	0.001729291018242957	3.018182199350493e-05	-4.9999998510472	0	0	45.00000011886164	-9.999999988573334	9.782708321421691e-14	60.00014061962231	1.047200005472	-4.999999851046986	0	0	0	0	0	0	-9.839850826175491e-95	0	0	0	0	-1.438579697904742e-36	0	-3.894359820124657e-111	0	0	0	0	-1.438579697904742e-36
26	-1887.85189507192	-1125.231202713972	921.8631827625298	0	0.93	0	41.91618973460692	13.32196398276851	-2.163175574168455	0.002979473563057576	5.200162365148159e-05	-4.999999851047204	2.920878172298238e-55	-2.134974371697487e-58	45.00000011886164	-9.999999988573334	9.334793174946697e-14	60.00014061962231	1.047200005472	-4.999999851046995	-1.818417807461061e-57	-7.844155247871243e-58	0	0	0	1.168351268919295e-54	3.738724060541744e-52	0	1.185375226521705e-46	0	0	0	2.555768400760958e-55	9.720682557408535e-52	1.168351268919295e-54	0	0	-4.563872144215996e-57	0
26.01666666666667	-1890.738917806665	-1133.086794829495	905.5118300967085	0	0.93	0	54.84090500563929	9.973028583194585	-1.892905365586317	0.01355395572586729	0.0002365611540859221	-4.999999851047205	0	0	45.00000011886164	-9.999999988573334	9.052616103382094e-14	60.00014061962231	1.047200005472	-4.999999851047003	0	0	0	0	0	0	4.653650528660029e-38	0	0	0	0	-8.013432436263839e-40	0	0	0	0	0	-9.34681015135436e-54	-2.413592872821651e-39
26.03333333333333	-1895.282898818934	-1130.124220534156	887.1484268440729	0	0.93	0	73.00000669777269	4.639508470011132	-4.392935108421699	5.862929240824037	0.102327419063831	-4.999999851047206	0	0	45.00000011886164	-9.999999988573334	8.045758083295358e-14	60.00014061962231	1.047200005472	-4.999999851047037	0	0	0	0	0	0	0	0	0	0	0	0	0	0	0	0	0	0	0
26.05	-1894.192926489417	-1116.078984082219	871.7124082030837	0	0.93	0	81.5417002266897	-2.710246600677037	-4.085861791935855	4.865945000922148	0.08492676148704999	-4.999999851047201	0	0	45.00000011886164	-9.999999988573334	7.227666048899458e-14	60.00014061962231	1.047200005472	-4.999999851047947	0	0	0	0	0	0	0	0	0	2.599215911320981e-40	0	0	2.007212196099389e-44	-1.856775031507371e-36	0	0	3.15707180360567e-38	0	-5.38806921148701e-36
26.06666666666667	-1886.265395026415	-1098.596469407104	862.5598925408921	0	0.93	0	82.37179682579854	-6.517828880554431	0.9723206726228479	0.012911284328395	0.0002253444221916375	-4.999999851047206	0	0	45.00000011886164	-9.999999988573334	6.568414878218495e-14	60.00014061962231	1.047200005472	-4.999999851047874	0	0	0	0	0	0	-2.279223376498963e-52	0	0	0	0	-5.388790853325842e-49	0	-2.279223376498963e-52	0	0	0	0	5.388790853325842e-49
26.08333333333333	-1876.858567586948	-1082.128554853165	860.2121153952808	0	0.93	0	82.33616814344306	-7.786235869436415	6.796309261677886	0.00525323733713686	9.168628792173759e-05	-4.999999851047207	0	0	45.00000011886164	-9.999999988573334	6.019933158458775e-14	60.00014061962231	1.047200005472	-4.999999851047804	0	0	0	0	0	0	1.034195716589399e-36	0	3.501537523307575e-40	7.135993755536704e-39	0	-1.084658246709684e-51	0	1.034195716589399e-36	0	3.501537523307575e-40	7.135993755536704e-39	0	1.084658246709684e-51
26.1	-1867.699471101291	-1068.709102690096	862.4081297084158	0	0.93	0	82.0863009067981	-7.951271244737864	11.63349051195319	0.003869163217939899	6.752963745011016e-05	-4.999999851047207	0	0	45.00000011886164	-9.999999988573334	5.635455591187875e-14	60.00014061962231	1.047200005472	-4.999999851047755	0	0	0	0	0	0	1.290773349021609e-36	0	0	8.03823222699078e-39	0	-2.533407688450714e-56	0	1.290773349021609e-36	0	0	8.03823222699078e-39	0	2.533407688450714e-56
26.11666666666667	-1858.379472345627	-1057.789886840974	866.5197043239917	0	0.93	0	81.43727180459085	-7.941154404027309	15.79286704840816	0.003165527960214613	5.524888546968506e-05	-4.999999851047209	0	-9.571133594986865e-50	45.00000011886164	-9.999999988573334	5.409903009446825e-14	60.00014061962231	1.047200005472	-4.999999851047716	0	0	0	0	0	0	-1.185595162839794e-55	0	0	0	0	-2.793964266761595e-51	0	-1.185595162839794e-55	0	0	0	0	1.914226718997373e-50
26.13333333333333	-1849.536590748454	-1049.349162944481	871.6024248859432	0	0.93	0	80.38934458176296	-7.769126304606503	19.23961651986631	0.002756102387333341	4.810306118104286e-05	-4.999999851047208	-5.841756344596475e-55	9.759748044696137e-70	45.00000011886164	-9.999999988573334	5.295342545196686e-14	60.00014061962231	1.047200005472	-4.999999851047688	0	0	0	0	3.400349724453685e-65	0	0	0	7.234655762020724e-39	0	0	-4.525800878653256e-36	0	-2.950719899525885e-39	0	7.234655762020724e-39	0	0	1.267564848670105e-35
